<svg width="24" height="25" viewBox="0 0 24 25" fill="none" xmlns="http://www.w3.org/2000/svg">
<path opacity="0.4" fill-rule="evenodd" clip-rule="evenodd" d="M19.7734 7.82503C18.0814 5.67603 15.5594 4.35403 12.8544 4.19603C10.1424 4.03803 7.49344 5.04903 5.57944 6.97003C2.77344 9.78403 2.00844 14.106 3.66544 17.701C3.70544 17.801 3.82744 18.105 4.65444 19.547C4.74744 19.708 4.73844 19.904 4.63144 20.057C4.40944 20.37 4.12844 20.772 3.90944 21.101C3.62644 21.526 3.59944 22.07 3.84044 22.519C4.07944 22.964 4.54144 23.241 5.04544 23.241H5.04744L5.66244 23.24C8.03344 23.239 11.4474 23.237 12.2654 23.241H12.2984C15.1004 23.241 17.7494 22.004 19.5704 19.844C22.4684 16.407 22.5534 11.352 19.7734 7.82503Z" fill="#00CA81"/>
<path fill-rule="evenodd" clip-rule="evenodd" d="M16.0523 12.144L11.7583 16.453C11.6173 16.594 11.4263 16.674 11.2273 16.674C11.0283 16.674 10.8363 16.594 10.6963 16.453L8.54932 14.298C8.25732 14.005 8.25732 13.53 8.55133 13.238C8.84532 12.945 9.32033 12.947 9.61233 13.24L11.2273 14.861L14.9903 11.085C15.2813 10.792 15.7563 10.79 16.0503 11.083C16.3443 11.376 16.3443 11.851 16.0523 12.144Z" fill="#00CA81"/>
</svg>
