<svg width="18" height="18" viewBox="0 0 18 18" fill="none" xmlns="http://www.w3.org/2000/svg">
<path opacity="0.4" fill-rule="evenodd" clip-rule="evenodd" d="M12.8239 12.9585C12.9551 12.8954 13.0054 12.7108 12.887 12.6259C12.8002 12.5636 12.7306 12.5875 12.5678 12.6569C10.1918 13.6679 7.81432 13.6574 5.43681 12.6637C5.26572 12.5921 5.19955 12.5638 5.11596 12.617C4.98977 12.6975 5.03852 12.8923 5.17311 12.9577C5.42897 13.0822 5.68511 13.2067 5.95374 13.3372C6.07469 13.396 6.11759 13.5469 6.04562 13.6605C5.83214 13.9975 5.6213 14.331 5.40381 14.6594C5.38056 14.6939 5.28081 14.7052 5.22906 14.6894C3.94281 14.2837 2.75331 13.6844 1.66506 12.8872C1.60956 12.8467 1.56156 12.7619 1.55556 12.6929C1.30881 9.96967 1.88481 7.42941 3.26631 5.06991C3.79356 4.16916 3.79206 4.15341 4.91556 3.79641C5.50656 3.60891 6.11556 3.47991 6.71481 3.31716C6.84681 3.28191 6.91281 3.32091 6.96531 3.44016C7.03131 3.58791 7.12956 3.72291 7.18056 3.87516C7.24131 4.05666 7.33431 4.09941 7.52257 4.07241C8.55382 3.92391 9.58582 3.94641 10.6163 4.08216C10.6721 4.09013 10.7256 4.05652 10.7508 4.00606C10.8475 3.81234 10.9466 3.61954 11.0378 3.42216C11.0851 3.31866 11.1436 3.29016 11.2583 3.31191C12.2251 3.49491 13.1603 3.77616 14.0566 4.18266C14.1481 4.22466 14.2396 4.30041 14.2951 4.38366C15.3548 5.96616 16.0696 7.68667 16.3591 9.57442C16.5181 10.6087 16.5368 11.6482 16.4431 12.6892C16.4363 12.7634 16.3793 12.8549 16.3171 12.8992C15.2371 13.6829 14.0626 14.2829 12.7868 14.6804C12.7246 14.6999 12.6068 14.6887 12.5798 14.6482C12.3637 14.3248 12.1572 13.9949 11.9461 13.6587C11.8747 13.5448 11.918 13.394 12.0391 13.3357C12.3065 13.2071 12.5635 13.0836 12.8239 12.9585Z" fill="#C6E7FF"/>
<path d="M7.79589 9.12004C7.83812 9.26036 7.84547 9.41021 7.86632 9.55669C7.86827 9.57056 7.86917 9.58459 7.86849 9.59861C7.85004 10.0077 7.72209 10.3694 7.44261 10.6703C6.90786 11.2455 6.06786 11.2298 5.55111 10.6395C5.07036 10.0898 5.02836 9.21604 5.46336 8.62954C5.78436 8.19529 6.21861 7.99054 6.75411 8.09779C7.31061 8.21029 7.63764 8.59054 7.79589 9.12004Z" fill="#C6E7FF"/>
<path d="M12.7959 9.16797C12.8288 9.29082 12.8358 9.42124 12.8526 9.54814C12.8542 9.56067 12.855 9.57334 12.8545 9.58594C12.8402 9.97954 12.7235 10.333 12.4659 10.6335C11.9507 11.2342 11.0994 11.2455 10.5594 10.6627C10.0104 10.0687 10.0134 9.06747 10.5722 8.48172C10.9119 8.12547 11.3312 7.98822 11.8089 8.11422C12.3497 8.25672 12.6549 8.64297 12.7959 9.16797Z" fill="#C6E7FF"/>
</svg>
