<svg width="20" height="20" viewBox="0 0 20 20" fill="none" xmlns="http://www.w3.org/2000/svg">
<path opacity="0.4" d="M20 9.99979C20 15.5238 15.523 19.9998 10 19.9998C4.477 19.9998 0 15.5238 0 9.99979C0 4.47779 4.477 -0.000213623 10 -0.000213623C15.523 -0.000213623 20 4.47779 20 9.99979Z" fill="#FFB3B2"/>
<path d="M9.99414 12.9285C10.4871 12.9285 10.8791 13.3215 10.8791 13.8035C10.8791 14.2855 10.4871 14.6785 10.0041 14.6785C9.51914 14.6785 9.12414 14.2855 9.12414 13.8035C9.12414 13.3215 9.51514 12.9285 9.99414 12.9285ZM9.99414 5.33569C10.4761 5.33569 10.8691 5.72869 10.8691 6.21069V10.6307C10.8691 11.1127 10.4761 11.5057 9.99414 11.5057C9.51214 11.5057 9.11914 11.1127 9.11914 10.6307V6.21069C9.11914 5.72869 9.51214 5.33569 9.99414 5.33569Z" fill="#FFB3B2"/>
</svg>
