<svg width="18" height="18" viewBox="0 0 18 18" fill="none" xmlns="http://www.w3.org/2000/svg">
<path fill-rule="evenodd" clip-rule="evenodd" d="M17.64 9.20456C17.64 8.56637 17.5827 7.95274 17.4764 7.36365H9V10.845H13.8436C13.635 11.97 13.0009 12.9232 12.0477 13.5614V15.8196H14.9564C16.6582 14.2527 17.64 11.9455 17.64 9.20456Z" fill="#4285F4"/>
<path fill-rule="evenodd" clip-rule="evenodd" d="M8.99994 17.9998C11.4299 17.9998 13.4672 17.1939 14.9563 15.8194L12.0477 13.5612C11.2418 14.1012 10.2109 14.4203 8.99994 14.4203C6.65585 14.4203 4.67176 12.8371 3.96403 10.7098H0.957214V13.0417C2.43812 15.983 5.48176 17.9998 8.99994 17.9998Z" fill="#34A853"/>
<path fill-rule="evenodd" clip-rule="evenodd" d="M3.96409 10.7101C3.78409 10.1701 3.68182 9.59325 3.68182 9.00007C3.68182 8.40689 3.78409 7.83007 3.96409 7.29007V4.95825H0.957273C0.347727 6.17325 0 7.5478 0 9.00007C0 10.4523 0.347727 11.8269 0.957273 13.0419L3.96409 10.7101Z" fill="#FBBC05"/>
<path fill-rule="evenodd" clip-rule="evenodd" d="M8.99994 3.57955C10.3213 3.57955 11.5077 4.03364 12.4404 4.92545L15.0218 2.34409C13.4631 0.891818 11.4259 0 8.99994 0C5.48176 0 2.43812 2.01682 0.957214 4.95818L3.96403 7.29C4.67176 5.16273 6.65585 3.57955 8.99994 3.57955Z" fill="#EA4335"/>
</svg>
