<svg width="20" height="21" viewBox="0 0 20 21" fill="none" xmlns="http://www.w3.org/2000/svg">
<path opacity="0.4" d="M20 10.7498C20 16.2738 15.523 20.7498 10 20.7498C4.477 20.7498 0 16.2738 0 10.7498C0 5.22782 4.477 0.749817 10 0.749817C15.523 0.749817 20 5.22782 20 10.7498Z" fill="#FF8022"/>
<path d="M9.99512 13.6785C10.4881 13.6785 10.8801 14.0715 10.8801 14.5535C10.8801 15.0355 10.4881 15.4285 10.0051 15.4285C9.52012 15.4285 9.12512 15.0355 9.12512 14.5535C9.12512 14.0715 9.51612 13.6785 9.99512 13.6785ZM9.99512 6.08569C10.4771 6.08569 10.8701 6.47869 10.8701 6.96069V11.3807C10.8701 11.8627 10.4771 12.2557 9.99512 12.2557C9.51312 12.2557 9.12012 11.8627 9.12012 11.3807V6.96069C9.12012 6.47869 9.51312 6.08569 9.99512 6.08569Z" fill="#FF8022"/>
</svg>
