<svg width="101" height="24" viewBox="0 0 101 24" fill="none" xmlns="http://www.w3.org/2000/svg">
<mask id="mask0_731_4519" style="mask-type:luminance" maskUnits="userSpaceOnUse" x="0" y="0" width="17" height="17">
<path d="M0 0.00390625H16.07V16.4986H0V0.00390625Z" fill="white"/>
</mask>
<g mask="url(#mask0_731_4519)">
<path d="M10.4351 2.55464L15.1917 5.28723C15.5083 4.6378 15.7993 3.95383 16.0594 3.23531L10.4351 0.00378418L0.00244141 5.99794V6.37432C0.00244141 9.89992 0.938733 13.3772 2.7099 16.4306C2.71231 16.4345 2.71473 16.4384 2.71714 16.4423L2.83908 16.3957C3.28006 16.2269 3.89852 15.9701 4.63349 15.609C3.14001 13.1182 2.28582 10.2502 2.22576 7.27126L10.4351 2.55464Z" fill="white"/>
</g>
<mask id="mask1_731_4519" style="mask-type:luminance" maskUnits="userSpaceOnUse" x="3" y="1" width="18" height="23">
<path d="M3.08862 1.50354H20.8628V23.9963H3.08862V1.50354Z" fill="white"/>
</mask>
<g mask="url(#mask1_731_4519)">
<path d="M17.9956 4.34736C17.9014 5.01902 17.7505 5.78409 17.5121 6.62006L18.6439 7.27099C18.5271 13.0594 15.4128 18.4293 10.4349 21.4251C9.16814 20.663 8.02298 19.7465 7.01636 18.7087C18.6702 11.003 17.3605 1.50903 17.3605 1.50903C14.6437 11.9164 5.84222 16.0284 3.10156 17.0755C3.62675 17.907 4.21171 18.6967 4.85039 19.4401C4.85009 19.4401 4.84979 19.4401 4.84979 19.4404C4.85945 19.4515 4.86941 19.4627 4.87907 19.4738C4.92615 19.5284 4.97414 19.5822 5.02183 19.6363C5.06892 19.6901 5.11601 19.7438 5.1637 19.797C5.17487 19.809 5.18573 19.8219 5.1969 19.8339C5.1969 19.8339 5.1972 19.8336 5.1975 19.8336C6.61099 21.395 8.26716 22.7347 10.1071 23.7921L10.4349 23.9801L10.7624 23.7921C13.8306 22.0291 16.3883 19.4837 18.1598 16.4303C19.931 13.3769 20.8673 9.89965 20.8673 6.37405V5.99767L17.9956 4.34736Z" fill="white"/>
</g>
<path d="M31.0474 19.3857V6.69604H27.1216V4.61415H37.2336V6.69604H33.3673V19.3857H31.0474Z" fill="white"/>
<path d="M42.0104 19.6236C40.9397 19.6236 39.988 19.3791 39.1552 18.89C38.3357 18.3877 37.6946 17.7135 37.2319 16.8676C36.7693 16.0084 36.538 15.05 36.538 13.9926C36.538 12.9087 36.7693 11.9503 37.2319 11.1176C37.7078 10.2848 38.3423 9.63052 39.1354 9.15466C39.9285 8.66558 40.8273 8.42104 41.8319 8.42104C42.6382 8.42104 43.3586 8.55983 43.9931 8.83742C44.6276 9.115 45.1629 9.49833 45.5991 9.98741C46.0354 10.4633 46.3658 11.0118 46.5905 11.6331C46.8285 12.2544 46.9474 12.9153 46.9474 13.6159C46.9474 13.7877 46.9408 13.9661 46.9276 14.1512C46.9144 14.3363 46.8879 14.5081 46.8483 14.6667H38.3026V12.8822H45.5793L44.5086 13.6952C44.6408 13.0475 44.5945 12.4725 44.3698 11.9702C44.1583 11.4547 43.8279 11.0515 43.3785 10.7607C42.9423 10.4567 42.4267 10.3047 41.8319 10.3047C41.2371 10.3047 40.7084 10.4567 40.2457 10.7607C39.7831 11.0515 39.4262 11.4745 39.175 12.0296C38.9239 12.5716 38.8247 13.2325 38.8776 14.0124C38.8115 14.7394 38.9107 15.3739 39.175 15.9158C39.4526 16.4578 39.8359 16.8808 40.325 17.1848C40.8273 17.4888 41.3957 17.6408 42.0302 17.6408C42.6779 17.6408 43.2264 17.4954 43.6759 17.2046C44.1385 16.9138 44.502 16.5371 44.7664 16.0745L46.5905 16.9667C46.379 17.469 46.0486 17.925 45.5991 18.3348C45.1629 18.7314 44.6342 19.0486 44.0129 19.2865C43.4049 19.5112 42.7374 19.6236 42.0104 19.6236Z" fill="white"/>
<path d="M52.703 19.6236C51.6059 19.6236 50.6409 19.3526 49.8082 18.8107C48.9886 18.2687 48.4136 17.5417 48.0832 16.6296L49.8082 15.8167C50.099 16.4248 50.4955 16.9072 50.9978 17.2641C51.5133 17.621 52.0817 17.7995 52.703 17.7995C53.2317 17.7995 53.6613 17.6805 53.9918 17.4426C54.3222 17.2046 54.4875 16.8808 54.4875 16.471C54.4875 16.2066 54.4148 15.9952 54.2694 15.8365C54.124 15.6647 53.9389 15.5259 53.7142 15.4202C53.5027 15.3144 53.2846 15.2351 53.0599 15.1822L51.3745 14.7064C50.4492 14.442 49.7553 14.0454 49.2926 13.5167C48.8432 12.9748 48.6185 12.3469 48.6185 11.6331C48.6185 10.9854 48.7837 10.4236 49.1142 9.94776C49.4447 9.45868 49.9007 9.08196 50.4823 8.81759C51.0639 8.55322 51.7182 8.42104 52.4452 8.42104C53.4234 8.42104 54.2958 8.66558 55.0625 9.15466C55.8291 9.63052 56.3711 10.298 56.6883 11.1572L54.9633 11.9702C54.7518 11.4547 54.4148 11.0449 53.9521 10.7409C53.5027 10.4368 52.9938 10.2848 52.4254 10.2848C51.9363 10.2848 51.5464 10.4038 51.2556 10.6417C50.9648 10.8664 50.8194 11.1638 50.8194 11.534C50.8194 11.7851 50.8855 11.9966 51.0176 12.1684C51.1498 12.3271 51.3217 12.4592 51.5332 12.565C51.7446 12.6575 51.9628 12.7368 52.1875 12.8029L53.9323 13.3184C54.8179 13.5696 55.4987 13.9661 55.9745 14.5081C56.4504 15.0368 56.6883 15.6713 56.6883 16.4115C56.6883 17.046 56.5165 17.6078 56.1728 18.0969C55.8423 18.5727 55.3797 18.9495 54.7849 19.227C54.19 19.4914 53.4961 19.6236 52.703 19.6236Z" fill="white"/>
<path d="M63.1267 19.5046C62.0031 19.5046 61.1307 19.1874 60.5095 18.5529C59.8882 17.9184 59.5776 17.0262 59.5776 15.8762V10.6814H57.6939V8.65897H57.9914C58.4937 8.65897 58.8836 8.51357 59.1612 8.22276C59.4388 7.93196 59.5776 7.53541 59.5776 7.03311V6.20035H61.8181V8.65897H64.2569V10.6814H61.8181V15.7771C61.8181 16.1472 61.8776 16.4644 61.9965 16.7288C62.1155 16.9799 62.3071 17.1782 62.5715 17.3236C62.8359 17.4558 63.1796 17.5219 63.6025 17.5219C63.7083 17.5219 63.8273 17.5153 63.9594 17.502C64.0916 17.4888 64.2172 17.4756 64.3362 17.4624V19.3857C64.1511 19.4121 63.9462 19.4385 63.7215 19.465C63.4968 19.4914 63.2985 19.5046 63.1267 19.5046Z" fill="white"/>
<path d="M70.3493 19.6236C69.543 19.6236 68.8358 19.4451 68.2278 19.0883C67.6197 18.7181 67.1439 18.2092 66.8002 17.5615C66.4697 16.9006 66.3045 16.1406 66.3045 15.2814V8.65897H68.545V15.0831C68.545 15.5722 68.6442 16.0018 68.8424 16.3719C69.0407 16.742 69.3183 17.0328 69.6752 17.2443C70.0321 17.4426 70.4419 17.5417 70.9045 17.5417C71.3804 17.5417 71.7967 17.436 72.1536 17.2245C72.5105 17.013 72.7881 16.7156 72.9864 16.3322C73.1979 15.9489 73.3036 15.4995 73.3036 14.984V8.65897H75.5243V19.3857H73.4028V17.2839L73.6407 17.5615C73.3896 18.2225 72.9732 18.7314 72.3916 19.0883C71.81 19.4451 71.1292 19.6236 70.3493 19.6236Z" fill="white"/>
<path d="M82.7007 19.6236C81.6696 19.6236 80.7443 19.3791 79.9248 18.89C79.1185 18.3877 78.4774 17.7135 78.0015 16.8676C77.5389 16.0216 77.3076 15.0699 77.3076 14.0124C77.3076 12.9549 77.5455 12.0032 78.0214 11.1572C78.4972 10.3113 79.1383 9.64374 79.9446 9.15466C80.7509 8.66558 81.663 8.42104 82.6808 8.42104C83.54 8.42104 84.3001 8.59288 84.961 8.93655C85.6219 9.28023 86.144 9.75609 86.5274 10.3641L86.1903 10.8797V4.37622H88.411V19.3857H86.2894V17.2046L86.5472 17.621C86.1771 18.2687 85.6483 18.7644 84.961 19.1081C84.2736 19.4518 83.5202 19.6236 82.7007 19.6236ZM82.9188 17.5417C83.54 17.5417 84.0952 17.3897 84.5843 17.0857C85.0866 16.7816 85.4765 16.3653 85.7541 15.8365C86.0449 15.2946 86.1903 14.6865 86.1903 14.0124C86.1903 13.3383 86.0449 12.7368 85.7541 12.2081C85.4765 11.6794 85.0866 11.263 84.5843 10.959C84.0952 10.6549 83.54 10.5029 82.9188 10.5029C82.2975 10.5029 81.7357 10.6549 81.2334 10.959C80.7311 11.263 80.3412 11.6794 80.0636 12.2081C79.786 12.7368 79.6472 13.3383 79.6472 14.0124C79.6472 14.6865 79.786 15.2946 80.0636 15.8365C80.3412 16.3653 80.7245 16.7816 81.2136 17.0857C81.7159 17.3897 82.2843 17.5417 82.9188 17.5417Z" fill="white"/>
<path d="M95.4086 19.6236C94.3775 19.6236 93.4324 19.3791 92.5732 18.89C91.7272 18.4009 91.0531 17.7334 90.5508 16.8874C90.0485 16.0414 89.7974 15.0831 89.7974 14.0124C89.7974 12.9285 90.0485 11.9702 90.5508 11.1374C91.0531 10.2914 91.7272 9.63052 92.5732 9.15466C93.4192 8.66558 94.3643 8.42104 95.4086 8.42104C96.466 8.42104 97.4111 8.66558 98.2439 9.15466C99.0899 9.63052 99.7574 10.2914 100.246 11.1374C100.749 11.9702 101 12.9285 101 14.0124C101 15.0963 100.749 16.0612 100.246 16.9072C99.7442 17.7532 99.07 18.4207 98.2241 18.9098C97.3781 19.3857 96.4396 19.6236 95.4086 19.6236ZM95.4086 17.5417C96.043 17.5417 96.6048 17.3897 97.0939 17.0857C97.583 16.7816 97.9663 16.3653 98.2439 15.8365C98.5347 15.2946 98.6801 14.6865 98.6801 14.0124C98.6801 13.3383 98.5347 12.7368 98.2439 12.2081C97.9663 11.6794 97.583 11.263 97.0939 10.959C96.6048 10.6549 96.043 10.5029 95.4086 10.5029C94.7873 10.5029 94.2255 10.6549 93.7232 10.959C93.2341 11.263 92.8442 11.6794 92.5534 12.2081C92.2758 12.7368 92.137 13.3383 92.137 14.0124C92.137 14.6865 92.2758 15.2946 92.5534 15.8365C92.8442 16.3653 93.2341 16.7816 93.7232 17.0857C94.2255 17.3897 94.7873 17.5417 95.4086 17.5417Z" fill="white"/>
</svg>
