<svg width="24" height="25" viewBox="0 0 24 25" fill="none" xmlns="http://www.w3.org/2000/svg">
<path opacity="0.4" d="M2 8.666V16.834C2 20.373 4.276 22.75 7.665 22.75H16.335C19.724 22.75 22 20.373 22 16.834V8.666C22 5.128 19.723 2.75 16.334 2.75H7.665C4.276 2.75 2 5.128 2 8.666Z" fill="#00CA81"/>
<path d="M7.72082 13.6054L11.4688 17.3704C11.7508 17.6534 12.2498 17.6534 12.5328 17.3704L16.2808 13.6054C16.5728 13.3114 16.5718 12.8364 16.2778 12.5444C15.9838 12.2524 15.5098 12.2524 15.2168 12.5464L12.7498 15.0234V8.6684C12.7498 8.2534 12.4138 7.9184 11.9998 7.9184C11.5858 7.9184 11.2498 8.2534 11.2498 8.6684V15.0234L8.78382 12.5464C8.63682 12.3994 8.44482 12.3264 8.25182 12.3264C8.06082 12.3264 7.86882 12.3994 7.72282 12.5444C7.42982 12.8364 7.42882 13.3114 7.72082 13.6054Z" fill="#00CA81"/>
</svg>
