<svg width="18" height="18" viewBox="0 0 18 18" fill="none" xmlns="http://www.w3.org/2000/svg">
<path opacity="0.4" fill-rule="evenodd" clip-rule="evenodd" d="M12.162 1.875H5.8365C3.4665 1.875 1.875 3.5415 1.875 6.0225V11.9767C1.875 14.4578 3.4665 16.125 5.8365 16.125H12.1613C14.532 16.125 16.125 14.4578 16.125 11.9767V6.0225C16.125 3.5415 14.5328 1.875 12.162 1.875Z" fill="#C6E7FF"/>
<path fill-rule="evenodd" clip-rule="evenodd" d="M13.4256 6.64026L12.8316 7.56803C12.9501 10.7075 11.0188 13.0115 8.08183 13.1975C7.97233 13.205 7.85683 13.2088 7.73833 13.2088C6.68082 13.2088 5.34132 12.9065 4.61382 12.0283C4.47207 11.8565 4.44432 11.6195 4.54257 11.42C4.64082 11.2205 4.84782 11.0818 5.06757 11.1073C5.46882 11.1215 5.86407 11.0623 6.23382 10.9325C4.97682 9.84578 4.54857 8.20853 4.92582 5.95851C4.96107 5.75001 5.11032 5.57826 5.31207 5.51451C5.51382 5.45226 5.73432 5.50626 5.88207 5.65701C6.54957 6.33876 7.39782 6.82476 8.31733 7.06251C8.47033 6.25176 9.00958 5.43951 9.88033 5.16951C10.9851 4.83951 11.8116 5.45751 12.1836 5.82501L12.9141 5.77626C13.1323 5.76576 13.3281 5.86776 13.4361 6.05076C13.5441 6.23376 13.5403 6.46176 13.4256 6.64026ZM10.2085 6.24632C10.9345 6.03032 11.4715 6.70457 11.5008 6.74282C11.567 6.831 11.7704 6.82779 11.9364 6.82516C12.0033 6.8241 12.0642 6.82314 12.1075 6.82832L11.7873 7.11332C11.722 7.21382 11.6913 7.33232 11.6995 7.45157C11.8668 10.1073 10.4185 11.9223 8.00953 12.0753C7.60228 12.0978 7.13052 12.0686 6.69252 11.9628C7.02402 11.8376 7.34202 11.6703 7.63903 11.4626C7.79803 11.3523 7.88803 11.1663 7.87828 10.9736C7.86853 10.7801 7.75978 10.6046 7.59103 10.5101C6.74427 10.0383 5.83527 9.23055 5.92377 7.16657C6.76377 7.76505 7.74553 8.15805 8.77303 8.29605C8.94553 8.3193 9.12028 8.26155 9.24403 8.1378C9.36853 8.0148 9.42778 7.84155 9.40603 7.66755C9.35503 7.26257 9.58078 6.44132 10.2085 6.24632Z" fill="#C6E7FF"/>
</svg>
