<svg width="24" height="25" viewBox="0 0 24 25" fill="none" xmlns="http://www.w3.org/2000/svg">
<path opacity="0.4" d="M22 16.834L22 8.666C22 5.127 19.724 2.75 16.335 2.75L7.665 2.75C4.276 2.75 2 5.127 2 8.666L2 16.834C2 20.372 4.277 22.75 7.666 22.75L16.335 22.75C19.724 22.75 22 20.372 22 16.834Z" fill="#FFB3B2"/>
<path d="M16.2792 11.8946L12.5312 8.1296C12.2492 7.8466 11.7502 7.8466 11.4672 8.1296L7.71918 11.8946C7.42718 12.1886 7.42818 12.6636 7.72218 12.9556C8.01618 13.2476 8.49018 13.2476 8.78318 12.9536L11.2502 10.4766L11.2502 16.8316C11.2502 17.2466 11.5862 17.5816 12.0002 17.5816C12.4142 17.5816 12.7502 17.2466 12.7502 16.8316L12.7502 10.4766L15.2162 12.9536C15.3632 13.1006 15.5552 13.1736 15.7482 13.1736C15.9392 13.1736 16.1312 13.1006 16.2772 12.9556C16.5702 12.6636 16.5712 12.1886 16.2792 11.8946Z" fill="#FFB3B2"/>
</svg>
